<svg width="188" height="247" viewBox="0 0 188 247" fill="none" xmlns="http://www.w3.org/2000/svg">
<path d="M127.428 107.175C127.038 107.175 126.658 106.97 126.454 106.599C126.157 106.061 126.352 105.384 126.89 105.087C131.361 102.629 133.978 97.081 133.263 91.5982L133.245 91.4683C132.54 86.0412 131.352 76.9588 131.593 68.8599C131.816 61.234 129.348 54.5916 123.736 42.6055C118.178 30.74 107.927 23.2904 102.751 22.0009C97.0729 20.5815 90.4398 21.769 89.7162 22.9379C89.3914 23.4574 88.7049 23.6151 88.1854 23.2904C87.6659 22.9657 87.5082 22.2792 87.8329 21.7597C89.5121 19.0693 97.7409 18.457 103.298 19.8486C109.05 21.2866 119.821 29.0052 125.758 41.6685C131.528 53.9886 134.07 60.8537 133.829 68.9341C133.597 76.8568 134.766 85.8278 135.462 91.19L135.48 91.3199C136.315 97.684 133.226 104.15 127.966 107.045C127.79 107.137 127.613 107.175 127.428 107.175Z" fill="#475658"/>
<path d="M119.691 111.581C119.227 111.581 118.8 111.294 118.642 110.83C118.438 110.245 118.754 109.614 119.329 109.41C122.103 108.455 124.255 105.959 125.229 102.545C126.175 99.2147 127.02 91.4868 125.443 83.8332C125.322 83.2302 125.702 82.6457 126.305 82.5158C126.908 82.3952 127.493 82.7756 127.623 83.3786C129.404 92.0527 128.235 100.105 127.363 103.148C126.185 107.267 123.522 110.31 120.052 111.507C119.932 111.563 119.811 111.581 119.691 111.581Z" fill="#475658"/>
<path d="M87.7401 33.7272C87.2021 33.4211 86.5248 33.6159 86.2187 34.1447C83.0273 39.7666 76.5612 46.0844 72.5256 48.4593C72.2844 48.5985 72.1081 48.8212 72.0246 49.0809C71.5144 50.7044 70.7629 52.7083 69.9837 54.8235C69.0745 57.2819 68.0818 59.9538 67.2933 62.4679C66.8387 58.2746 66.0409 56.1594 64.6307 55.4265C64.0927 55.1482 63.2206 54.9441 62.0981 55.5749C59.417 57.0593 57.9419 60.2042 57.9419 64.4346C57.9419 68.5908 58.2017 71.1884 58.9346 74.3798C59.5376 76.9774 60.3447 80.4841 63.267 80.4841C63.4061 80.4841 63.5546 80.4749 63.703 80.4563C64.3153 80.3914 64.7513 79.8347 64.6864 79.2224C64.6215 78.6101 64.0648 78.1741 63.4525 78.2391C62.4599 78.3504 61.8847 77.2835 61.0961 73.8695C60.4003 70.8637 60.1591 68.396 60.1591 64.4254C60.1591 61.0485 61.226 58.59 63.1649 57.5139C63.2392 57.4768 63.4896 57.3469 63.5917 57.4025C63.7587 57.486 64.5936 58.1447 65.0853 62.839C65.1502 63.4513 65.6976 63.8966 66.3099 63.8316C66.5697 63.8038 66.7923 63.6739 66.9686 63.4976C66.7088 64.379 66.4769 65.2325 66.2913 66.0396C66.1522 66.6426 66.5326 67.2363 67.1263 67.3755C67.2098 67.394 67.2933 67.4033 67.3768 67.4033C67.887 67.4033 68.3416 67.0508 68.4622 66.5406C69.1951 63.3028 70.7166 59.2209 72.0617 55.612C72.7946 53.636 73.4904 51.762 74.01 50.1664C78.2867 47.5131 84.7622 41.2046 88.1391 35.2487C88.4638 34.7106 88.2689 34.0241 87.7401 33.7272Z" fill="#475658"/>
<path d="M89.4843 59.0818C89.2895 59.0818 89.1039 59.0354 88.9277 58.9333C86.3115 57.4119 81.7564 56.0203 78.4723 56.4656C77.8508 56.5398 77.3034 56.1223 77.2199 55.51C77.1364 54.8978 77.5632 54.3411 78.1755 54.2576C81.9976 53.7474 87.0351 55.2596 90.0502 57.0129C90.579 57.3191 90.7646 58.0056 90.4491 58.5344C90.2358 58.8869 89.8647 59.0818 89.4843 59.0818Z" fill="#475658"/>
<path d="M115.117 107.722C113.558 105.301 113.095 102.749 112.492 99.5301C112.325 98.6302 112.148 97.684 111.944 96.7006C111.23 93.3237 111.397 87.4605 112.436 78.7771C112.612 77.3392 112.9 75.5394 113.215 73.6376C114.226 67.4219 115.497 59.6847 114.57 53.7752C114.477 53.1721 113.902 52.7547 113.299 52.8474C112.696 52.9402 112.278 53.5154 112.371 54.1184C112.779 56.7438 112.714 59.8146 112.436 62.9595C111.619 60.464 110.979 57.152 110.321 53.6917C109.412 48.9696 108.475 44.0898 106.916 40.0078C105.265 35.7032 102.417 32.549 98.8819 31.1389C96.0617 30.0071 93.0559 30.072 90.4304 31.3244C89.8738 31.5842 89.6419 32.2521 89.9016 32.8088C90.1614 33.3654 90.8294 33.6066 91.386 33.3376C93.4455 32.3542 95.8112 32.3078 98.0563 33.2077C101.006 34.3859 103.409 37.0855 104.838 40.8057C106.332 44.7021 107.25 49.4891 108.141 54.1091C108.484 55.9089 108.827 57.6623 109.189 59.3043C106.795 58.9147 104.068 59.0631 101.962 59.7682C101.377 59.963 101.062 60.5939 101.266 61.1783C101.424 61.6422 101.86 61.9391 102.324 61.9391C102.444 61.9391 102.565 61.9205 102.676 61.8834C104.708 61.1969 107.565 61.1319 109.773 61.6979C110.219 63.3863 110.71 64.8892 111.304 66.0767C111.453 66.3828 111.731 66.5776 112.037 66.6519C111.731 68.934 111.369 71.1884 111.035 73.2665C110.72 75.1961 110.423 77.0237 110.246 78.4988C109.161 87.5533 109.013 93.4721 109.783 97.1459C109.987 98.1107 110.154 99.0384 110.321 99.9198C110.933 103.25 111.471 106.126 113.262 108.919C113.475 109.253 113.837 109.429 114.199 109.429C114.403 109.429 114.616 109.373 114.802 109.253C115.303 108.928 115.451 108.232 115.117 107.722Z" fill="#475658"/>
<path d="M95.0878 82.4695C94.5497 82.4695 94.0766 82.0798 93.9931 81.5232C93.4457 77.9793 95.598 72.6078 96.9339 69.7226C97.1937 69.166 97.8524 68.9155 98.409 69.1753C98.9656 69.435 99.2068 70.0937 98.9564 70.6504C96.8968 75.1034 95.8671 79.0462 96.1918 81.1799C96.2845 81.7922 95.8671 82.3581 95.264 82.4509C95.1991 82.4602 95.1434 82.4695 95.0878 82.4695Z" fill="#475658"/>
<path d="M105.025 73.6088C106.188 73.42 106.978 72.324 106.789 71.1607C106.6 69.9975 105.504 69.2075 104.341 69.3963C103.178 69.5851 102.388 70.6812 102.577 71.8444C102.765 73.0076 103.862 73.7976 105.025 73.6088Z" fill="#475658"/>
<path d="M78.3145 66.754C78.3145 67.9322 79.27 68.8877 80.4482 68.8877C81.6264 68.8877 82.5819 67.9322 82.5819 66.754C82.5819 65.5758 81.6264 64.6202 80.4482 64.6202C79.2793 64.6202 78.3145 65.5758 78.3145 66.754Z" fill="#475658"/>
<path d="M89.0205 32.7254C85.7364 39.7018 79.1681 45.3423 73.2215 49.248C71.5794 54.3783 67.9706 63.7111 67.4789 65.7706C65.8368 60.6404 65.3359 56.6233 63.5825 56.5398C61.8291 56.4563 60.2984 57.8758 59.6861 61.1599C59.0738 64.444 58.7583 67.2179 59.7881 72.1348C60.7437 76.7177 61.9404 80.243 66.0502 79.8255C66.4584 84.5476 65.8461 87.8317 68.1005 92.1363C70.3548 96.4502 75.281 104.447 74.8728 109.986C69.3343 110.802 66.0502 109.986 64.204 107.731C62.3579 105.477 61.6435 103.213 60.9199 100.143C57.4317 99.1128 55.5856 94.6041 55.9938 91.3199C51.9953 88.1379 50.3532 82.4974 50.1491 77.7753C49.945 73.0532 51.2809 65.6686 54.3517 60.3342C57.4317 54.9998 61.7363 50.0737 64.204 47.6152C66.6625 45.1568 68.8241 41.7706 70.262 37.0485C71.7 32.3264 74.78 29.367 78.0641 27.5023C81.1442 25.7582 85.3467 26.2684 87.8144 27.7064C90.4863 25.248 93.8724 23.912 99.0027 23.912C104.133 23.912 108.651 26.4725 113.364 30.9905C118.086 35.5085 121.37 40.3234 124.654 47.5132C127.938 54.6937 130.193 59.824 130.814 67.422C131.436 75.02 132.864 84.1487 133.792 89.4831C134.562 93.9454 133.996 98.3056 132.762 100.56C131.528 102.814 128.56 106.618 125.174 105.996C122.502 109.995 118.809 111.229 115.943 111.025C113.271 114.105 107.426 116.053 101.786 113.075C101.99 108.761 102.398 104.456 103.02 101.998C105.58 99.4375 107.946 96.0513 110.404 92.7672C111.017 84.1487 111.434 71.8379 113.076 66.2994C110.72 63.5255 109.384 56.0389 108.354 49.4706C107.324 42.9024 105.682 36.5383 101.99 33.8757C98.2605 31.1853 94.7723 31.2874 89.0205 32.7254Z" fill="#D44B4B"/>
<path d="M127.168 166.623C126.983 166.623 126.797 166.576 126.63 166.483C126.092 166.187 125.897 165.509 126.194 164.971C127.14 163.274 128.291 160.611 129.636 157.531C132.976 149.859 137.122 140.313 142.132 135.544C142.577 135.117 143.283 135.136 143.709 135.581C144.136 136.027 144.117 136.732 143.672 137.158C138.987 141.611 134.766 151.334 131.686 158.422C130.322 161.557 129.144 164.257 128.151 166.057C127.938 166.419 127.558 166.623 127.168 166.623Z" fill="#475658"/>
<path d="M8.01244 212.34C7.44653 212.34 6.92701 212.173 6.50026 211.839C5.93436 211.394 4.79327 210.021 6.40749 206.793C8.57835 202.451 17.67 196.708 23.1899 196.189C23.8022 196.133 24.3495 196.578 24.4052 197.191C24.4609 197.803 24.0156 198.35 23.4033 198.406C18.6533 198.851 10.239 204.111 8.40208 207.785C7.6228 209.344 7.79907 210.012 7.87328 210.086C7.96605 210.151 8.5969 210.142 9.46896 209.39C10.3317 208.648 10.8976 207.859 11.4543 207.099C12.2985 205.93 13.1705 204.714 14.9425 203.833C15.4898 203.564 16.1578 203.777 16.4361 204.334C16.7144 204.881 16.4918 205.549 15.9351 205.828C14.6549 206.468 14.0426 207.321 13.2633 208.407C12.6603 209.232 11.9831 210.179 10.9255 211.088C9.95137 211.914 8.9216 212.34 8.01244 212.34Z" fill="#475658"/>
<path d="M125.359 218.25C125.155 218.25 124.96 218.231 124.765 218.203C122.724 217.888 121.37 216.209 121.472 214.112C121.509 213.352 121.565 212.582 121.63 211.812C121.824 209.316 122.019 206.737 121.277 205.355C120.99 204.817 121.184 204.139 121.732 203.842C122.27 203.555 122.947 203.75 123.244 204.297C124.292 206.254 124.079 209.028 123.856 211.979C123.801 212.73 123.736 213.481 123.708 214.214C123.652 215.365 124.431 215.893 125.118 215.996C125.879 216.107 126.89 215.754 127.252 214.372C128.077 211.199 124.96 201.987 121.054 197.914C120.628 197.469 120.646 196.764 121.082 196.337C121.528 195.91 122.233 195.929 122.659 196.365C126.834 200.716 130.489 210.772 129.404 214.929C128.782 217.276 126.983 218.25 125.359 218.25Z" fill="#475658"/>
<path d="M149.285 138.596C148.756 138.281 148.069 138.448 147.754 138.977C147.439 139.506 147.606 140.183 148.134 140.498C148.793 140.981 150.556 145.359 150.305 151.056C150.231 152.8 150.148 156.557 150.045 161.307C149.814 171.836 149.507 186.262 149.006 189.602C148.227 194.779 145.5 203.973 141.149 212.814C138.097 219.029 135.453 222.434 132.048 226.562C129.209 230.014 124.171 229.55 116.963 227.676C110.293 225.95 61.4857 214.957 58.285 214.465C55.6782 214.066 55.3442 213.38 55.539 211.246C55.8544 207.748 57.7655 195.994 60.7806 191.087C62.6917 187.979 65.0481 187.329 66.1614 187.645C68.2116 188.229 113.911 198.221 116.573 198.666C117.186 198.768 117.752 198.36 117.854 197.748C117.882 197.571 117.854 197.395 117.807 197.237C119.885 195.744 121.388 194.176 122.39 192.45C123.93 191.634 126.407 189.417 127.085 187.691C127.344 187.042 127.354 186.448 127.131 185.928C128.309 185.427 129.441 184.852 130.229 184.268C132.206 182.802 132.744 180.39 131.5 178.525C131.426 178.405 131.324 178.321 131.213 178.238C131.732 177.653 132.131 176.985 132.521 176.067C132.994 174.963 132.753 173.794 131.909 173.015C131.009 172.18 129.255 171.716 127.047 172.875C126.955 172.922 126.825 172.987 126.695 173.052C126.788 172.022 126.546 170.983 125.953 170.25C125.572 169.786 124.134 168.395 121.546 170.102C119.524 171.428 115.052 173.738 112.38 175.13C111.582 175.547 110.933 175.881 110.571 176.076C109.94 176.419 109.235 176.828 108.558 177.31C111.378 170.575 114.152 162.346 115.646 156.566C118.104 147.02 117.455 130.479 113.169 121.508C118.819 123.679 127.697 126.944 133.922 129.236C137.503 130.553 140.314 131.583 141.334 131.982C143.579 132.845 146.613 134.208 147.04 136.101C147.151 136.62 147.615 136.973 148.125 136.973C148.209 136.973 148.283 136.964 148.366 136.945C148.969 136.815 149.35 136.212 149.211 135.618C148.57 132.733 145.277 131.11 142.132 129.904C141.102 129.505 138.282 128.475 134.683 127.148C127.446 124.486 116.592 120.497 111.48 118.465C110.729 117.482 110.042 116.674 109.347 115.849C111.675 115.561 113.846 114.643 115.238 113.103C115.646 112.648 115.618 111.943 115.154 111.535C114.699 111.127 113.994 111.155 113.586 111.618C111.555 113.873 106.331 114.698 102.908 112.351C102.843 112.305 102.76 112.286 102.686 112.258C102.788 109.086 103.149 105.894 103.892 103.13C103.957 102.907 103.919 102.684 103.845 102.471C105.2 101.117 106.452 99.623 107.51 97.9995C107.844 97.4892 107.705 96.7935 107.185 96.4595C106.675 96.1255 105.979 96.2647 105.645 96.7842C101.925 102.49 96.1637 105.913 93.3342 107.045C89.9758 108.39 85.5042 107.833 82.8139 106.59C80.2534 105.412 78.7319 103.863 76.96 102.072L76.2456 101.358C75.8096 100.922 75.1045 100.922 74.6685 101.358C74.5572 101.469 74.4737 101.599 74.4273 101.729C74.0377 100.95 73.5831 100.17 73.0636 99.3818C71.1896 96.5708 68.7311 91.4962 68.0168 88.2028C67.2004 84.3992 67.5158 79.4452 67.7478 75.8271L67.7941 75.1405C67.8313 74.5283 67.3674 73.9995 66.7551 73.9624C66.1428 73.9067 65.614 74.3891 65.5769 75.0014L65.5305 75.6879C65.2893 79.4359 64.9646 84.5754 65.8459 88.6759C66.6252 92.2755 69.1857 97.582 71.2174 100.625C72.7389 102.907 73.6202 105.087 73.8892 107.267C73.9635 107.833 74.4366 108.241 74.9932 108.241C75.0396 108.241 75.086 108.241 75.1324 108.232C75.7447 108.158 76.1714 107.601 76.0972 106.989C75.9488 105.802 75.6426 104.633 75.1973 103.445L75.3829 103.631C77.229 105.495 78.9638 107.258 81.8862 108.613C83.6952 109.448 86.2464 110.051 88.8904 110.051C90.6716 110.051 92.4992 109.772 94.1598 109.114C96.2658 108.269 98.7892 106.785 101.229 104.818C100.004 111.303 100.348 119.216 101.285 124.319V124.328C101.285 124.328 101.285 124.328 101.285 124.337C102.138 128.586 102.352 133.373 102.138 138.439C101.823 138.318 101.461 138.337 101.155 138.531C93.6867 143.346 76.1065 142.966 68.7311 137.817C68.4899 137.65 68.2023 137.594 67.924 137.632C67.7014 133.828 67.5993 130.247 67.6643 127.111C67.924 127.037 68.1559 126.861 68.3044 126.61C69.529 124.495 72.3121 115.988 72.4327 112.119C72.4327 112.036 72.4049 111.962 72.3956 111.887C73.379 111.86 74.3902 111.73 75.3921 111.442C75.9859 111.275 76.3291 110.654 76.1529 110.069C75.9859 109.475 75.3736 109.132 74.7798 109.299C70.1876 110.607 65.2986 108.121 64.0833 105.894C62.0237 102.137 61.8475 99.6972 61.8475 93.129C61.8475 92.5167 61.3465 92.0157 60.7342 92.0157C60.1219 92.0157 59.621 92.5167 59.621 93.129C59.621 95.1236 59.6395 96.7656 59.723 98.2036C56.8471 94.7803 56.8193 89.882 59.6302 82.8499C59.8622 82.2747 59.5839 81.6346 59.0087 81.4026C58.4335 81.1707 57.7934 81.449 57.5614 82.0242C56.3647 85.0115 55.6596 87.6926 55.4277 90.1046C55.4462 89.8263 55.3627 89.548 55.1772 89.3253C53.0156 86.737 50.9283 83.4993 51.1602 75.1034C51.3736 67.4776 55.1679 57.9871 62.1351 47.6709C65.9202 42.0582 67.0334 38.6627 68.0075 35.6662C68.6847 33.5881 69.2692 31.7976 70.6979 29.6082C73.9727 24.58 81.58 22.4184 84.1405 24.0048C84.66 24.3295 85.3465 24.1718 85.6712 23.6523C85.9959 23.1328 85.8382 22.4462 85.3187 22.1215C81.5522 19.7744 72.711 22.4462 68.8332 28.3929C67.2468 30.8235 66.5881 32.8459 65.8923 34.9797C64.9646 37.8371 63.907 41.0748 60.2889 46.4277C55.27 53.868 49.2213 64.8707 48.9337 75.0478C48.6832 84.2136 51.1416 87.9616 53.4702 90.754C53.6929 91.0138 54.0083 91.1529 54.3237 91.1529C54.5742 91.1529 54.8247 91.0694 55.038 90.8932C55.2607 90.7076 55.3906 90.4479 55.4277 90.1788C55.038 94.3628 56.0956 97.7026 58.6097 100.291C58.8324 100.514 59.12 100.625 59.4076 100.625C59.5931 100.625 59.7694 100.56 59.9364 100.467C60.2518 102.796 60.8827 104.67 62.1351 106.952C63.0813 108.678 65.4377 110.449 68.3693 111.331C68.36 111.34 68.3415 111.349 68.3322 111.359C66.3098 113.743 63.0999 115.7 60.5208 117.277L59.6766 117.788C59.1571 118.103 58.9901 118.79 59.3055 119.309C58.8695 119.17 58.4149 119.309 58.1273 119.652C58.1273 119.55 58.1366 119.448 58.1088 119.346C57.9511 118.753 57.3388 118.391 56.745 118.558C55.5576 118.873 53.8042 119.309 51.8003 119.801C43.4694 121.86 36.3909 123.669 34.2108 124.885C30.8803 126.731 30.1103 129.041 29.4331 131.073C29.2382 131.657 29.5537 132.288 30.1381 132.483C30.2587 132.52 30.3701 132.538 30.4907 132.538C30.9545 132.538 31.3905 132.242 31.5483 131.778C32.1791 129.885 32.7265 128.252 35.2962 126.824C37.4021 125.655 46.3917 123.428 52.3384 121.953C54.3608 121.452 56.1235 121.016 57.3202 120.701C57.4408 120.673 57.5336 120.608 57.6356 120.543C50.0376 136.416 53.7949 155.713 55.6132 165.055C56.8378 171.345 58.4891 177.152 59.8158 181.819C60.2518 183.359 60.6507 184.76 60.9847 185.993C57.4594 185.372 52.7466 185.047 52.5147 185.029C52.2734 185.01 52.023 185.075 51.8189 185.214C51.522 185.409 51.2159 185.687 50.9004 186.003C50.7334 185.854 50.5201 185.734 50.2789 185.715C44.1466 185.131 39.7029 185.483 37.0403 186.773C36.8641 186.856 36.6878 186.958 36.5115 187.06C36.5023 187.023 36.5115 186.986 36.5023 186.949C35.7508 183.934 34.7953 177.635 34.2757 172.282C33.7748 167.142 33.7377 149.404 34.2108 142.632C34.2572 142.02 33.7933 141.482 33.181 141.444C32.5595 141.407 32.0399 141.862 31.9936 142.474C31.5019 149.488 31.5483 167.161 32.0585 172.495C32.5873 177.941 33.5707 184.388 34.3407 187.487C34.4149 187.765 34.5912 187.988 34.8138 188.136C33.3666 189.175 31.8451 190.484 30.435 191.69C29.5908 192.413 28.8022 193.09 28.1435 193.61C26.3252 195.039 25.2769 196.579 25.1192 198.063C25.0079 199.083 25.314 200.076 26.0098 200.92C27.9023 203.23 31.0751 203.861 34.2015 202.59C35.7972 203.332 37.8474 203.611 39.8049 203.611C40.8811 203.611 41.9201 203.527 42.8478 203.397C42.8386 203.472 42.8107 203.564 42.8015 203.639C42.7272 204.102 42.9406 204.557 43.3488 204.789C43.423 204.826 50.5293 208.88 52.7559 210.457C52.9228 210.578 53.1177 210.634 53.3125 210.652C53.3032 210.782 53.2847 210.903 53.2754 211.005C52.96 214.446 54.3051 216.079 57.9047 216.627C59.1014 216.812 66.7087 218.473 76.0972 220.56C73.7594 220.968 71.069 221.367 68.425 221.757C66.7829 221.998 65.178 222.239 63.7122 222.471C49.5088 224.716 21.3898 228.251 15.9162 227.286C9.40366 226.136 5.27533 223.603 3.64254 219.753C2.73338 217.629 0.933611 211.617 3.68893 201.811C6.04533 193.443 17.7809 160.574 19.9982 156.139C20.9073 154.33 22.0299 151.111 23.2174 147.707C24.8873 142.938 27.1787 136.407 28.5796 135.182C29.0434 134.774 29.0898 134.078 28.6816 133.615C28.2734 133.151 27.5776 133.104 27.1138 133.512C25.3975 135.015 23.6256 139.821 21.1207 146.983C19.9518 150.323 18.8478 153.468 18.0036 155.156C15.5637 160.027 3.70748 193.545 1.5459 201.227C-0.532183 208.611 -0.513629 215.69 1.59229 220.644C3.54049 225.227 8.23474 228.205 15.5266 229.494C16.2873 229.633 17.3913 229.689 18.755 229.689C22.9854 229.689 29.7485 229.104 36.9197 228.307C37.5227 233.4 38.1629 240.515 38.1629 245.646C38.1629 246.258 38.6638 246.759 39.2761 246.759C39.8884 246.759 40.3894 246.258 40.3894 245.646C40.3894 240.423 39.7493 233.214 39.137 228.056C48.8502 226.934 58.8788 225.505 64.0554 224.688C65.512 224.457 67.1076 224.225 68.7404 223.974C71.7277 223.529 74.7799 223.074 77.3403 222.61C78.5 229.735 79.2886 234.355 79.7617 236.702C79.8637 237.203 80.2905 237.574 80.8007 237.593C80.8193 237.593 80.8286 237.593 80.8471 237.593C81.3388 237.593 81.7748 237.268 81.914 236.795C82.8139 233.697 83.9642 229.336 85.6063 222.712C99.0582 225.737 113.002 228.937 116.342 229.8C119.375 230.589 122.576 231.303 125.526 231.303C127.307 231.303 128.986 231.025 130.489 230.366C130.109 235.218 130.146 239.087 130.22 245.506V245.896C130.229 246.508 130.721 247 131.333 247H131.343C131.955 246.991 132.447 246.49 132.447 245.877V245.497C132.372 238.409 132.326 234.457 132.855 228.854C133.152 228.585 133.43 228.288 133.699 227.963C137.197 223.714 139.915 220.217 143.078 213.779C147.838 204.102 150.389 194.872 151.14 189.918C151.66 186.439 151.975 171.938 152.207 161.344C152.309 156.789 152.393 152.865 152.467 151.139C152.764 145.731 151.214 139.747 149.285 138.596ZM70.2897 111.758C70.2804 111.785 70.2619 111.804 70.2619 111.832C70.2526 111.804 70.234 111.776 70.2248 111.748C70.2433 111.748 70.2619 111.748 70.2897 111.758ZM70.0392 112.806C70.1134 112.722 70.1505 112.62 70.1969 112.528C70.0114 114.735 69.0466 118.363 68.0725 121.285C68.3415 119.235 68.7404 117.584 69.3156 116.47C69.5939 115.923 69.3805 115.255 68.8332 114.967C68.4899 114.791 68.1003 114.828 67.7849 115.005C68.6105 114.309 69.3805 113.585 70.0392 112.806ZM103.483 123.92C103.483 123.92 103.483 123.911 103.483 123.92C103.02 121.396 102.704 118.168 102.667 114.782C103.827 115.366 105.125 115.728 106.461 115.877C106.768 116.238 107.064 116.591 107.352 116.934C108.205 117.936 109.003 118.882 109.912 120.07C109.968 120.144 110.033 120.209 110.107 120.265C110.117 120.45 110.154 120.626 110.256 120.793C115.098 128.521 115.989 146.389 113.503 156.028C111.434 164.062 106.591 177.505 102.973 183.971C102.825 184.24 102.797 184.546 102.871 184.824C101.368 187.079 99.7169 189.482 98.6871 190.753C98.2975 191.226 98.3717 191.931 98.8541 192.32C99.0582 192.487 99.3087 192.571 99.5499 192.571C99.8746 192.571 100.199 192.432 100.413 192.153C102.732 189.287 108.048 180.956 108.103 180.872C108.892 179.639 110.395 178.72 111.619 178.061C111.981 177.867 112.612 177.542 113.401 177.134C116.11 175.733 120.646 173.386 122.761 171.994C123.095 171.772 123.912 171.298 124.218 171.688C124.617 172.18 124.58 173.497 124.014 174.072C123.893 174.193 123.819 174.323 123.763 174.471C122.585 175.009 121.249 175.622 119.932 176.225C116.416 177.82 113.104 179.323 112.028 179.935C110.089 181.021 108.929 182.607 107.899 183.999L107.5 184.537C107.129 185.029 107.231 185.724 107.723 186.095C108.215 186.467 108.911 186.364 109.282 185.873L109.69 185.316C110.627 184.045 111.592 182.728 113.113 181.874C114.106 181.318 117.529 179.759 120.85 178.256C123.967 176.837 126.918 175.501 128.077 174.889C129.181 174.313 130.053 174.378 130.396 174.694C130.489 174.777 130.601 174.926 130.471 175.232C129.812 176.781 129.292 177.282 127.01 178.581C126.129 179.082 122.706 180.687 119.96 181.967C117.343 183.192 115.711 183.952 115.228 184.231C114.032 184.899 112.696 186.179 111.555 187.747C111.193 188.248 111.304 188.944 111.805 189.305C112 189.445 112.232 189.519 112.454 189.519C112.798 189.519 113.141 189.361 113.354 189.064C114.301 187.765 115.405 186.689 116.314 186.188C116.759 185.938 118.865 184.954 120.915 183.999C123.847 182.626 127.168 181.077 128.124 180.529C128.689 180.204 129.163 179.917 129.589 179.639C129.617 179.694 129.617 179.75 129.654 179.796C130.322 180.798 129.766 181.884 128.912 182.514C127.326 183.683 123.42 185.066 121.778 185.483C120.488 185.808 118.939 187.116 117.047 188.795C116.629 189.166 116.249 189.5 115.933 189.76C115.46 190.15 115.386 190.855 115.776 191.328C115.998 191.597 116.314 191.736 116.638 191.736C116.889 191.736 117.139 191.652 117.343 191.485C117.677 191.216 118.076 190.855 118.522 190.465C119.616 189.491 121.453 187.867 122.316 187.645C122.845 187.515 123.875 187.199 125.062 186.773C124.951 187.608 122.464 190.066 121.166 190.604C120.934 190.706 120.739 190.882 120.609 191.105C119.681 192.831 118.113 194.417 115.813 195.948C115.701 196.022 115.609 196.124 115.534 196.226C112.009 195.502 102.834 193.517 93.3713 191.458C93.5661 191.318 93.7145 191.114 93.7795 190.864L94.0114 190.038C99.2901 171.159 107.241 142.706 103.483 123.92ZM85.9217 144.218C92.0447 144.218 98.0655 143.022 102.036 140.591C100.96 156.863 95.7091 175.696 91.8777 189.389L91.6457 190.215C91.5622 190.511 91.6086 190.808 91.7478 191.049C85.0497 189.584 78.3608 188.109 73.5831 187.051C73.9727 186.81 74.1861 186.355 74.0933 185.891C72.8224 179.676 69.3156 157.884 68.091 140.044C72.4791 142.808 79.2514 144.218 85.9217 144.218ZM57.8119 164.647C56.0121 155.407 52.2549 136.184 59.9735 120.858C60.1498 120.506 60.1034 120.107 59.9178 119.792C60.0292 119.829 60.1498 119.856 60.2704 119.856C60.4652 119.856 60.6693 119.801 60.8548 119.689L61.6898 119.179C63.5081 118.066 65.6233 116.767 67.4973 115.236C67.4416 115.301 67.3767 115.357 67.3396 115.431C61.6248 126.517 70.4567 179.212 71.9132 186.327C71.941 186.467 71.9967 186.596 72.0709 186.708C69.13 186.049 67.1633 185.594 66.7737 185.483C65.7532 185.196 64.4915 185.288 63.1927 185.864C63.2019 185.743 63.2019 185.622 63.1741 185.492C62.8401 184.231 62.4319 182.793 61.9774 181.206C60.66 176.596 59.0272 170.844 57.8119 164.647ZM43.154 201.134C40.5471 201.588 36.827 201.57 34.8324 200.419C34.5169 200.243 34.1273 200.225 33.8026 200.382C30.9638 201.727 28.7744 200.772 27.7725 199.538C27.457 199.148 27.3271 198.768 27.3735 198.332C27.4663 197.469 28.2456 196.421 29.5629 195.382C30.2587 194.835 31.0658 194.139 31.9286 193.397C33.8768 191.717 36.2982 189.639 38.0423 188.786C40.1946 187.738 44.1188 187.431 49.3882 187.877C47.0226 191.244 44.6012 196.718 43.4045 201.124C43.3303 201.134 43.2468 201.124 43.154 201.134ZM53.6465 208.37C51.4849 206.904 46.9205 204.269 45.1764 203.277C46.3268 197.72 50.2974 189.38 52.793 187.301C53.9619 187.394 57.4315 187.673 60.2054 188.136C59.7416 188.656 59.2963 189.24 58.8788 189.918C56.0585 194.51 54.3515 203.546 53.6465 208.37ZM81.1254 231.516C80.708 229.114 80.1977 226.015 79.5761 222.211C80.0678 222.109 80.5317 222.007 80.9584 221.896C81.079 221.868 81.1811 221.803 81.2739 221.748C82.0068 221.915 82.7489 222.082 83.4911 222.249C82.5541 226.015 81.7841 229.049 81.1254 231.516Z" fill="#475658"/>
<path d="M95.7866 94.7338C95.7165 94.7338 95.6405 94.7166 95.5704 94.682C92.1808 93.0596 86.6174 92.6022 83.4265 93.681C83.0467 93.8104 82.6727 93.4566 82.585 92.9043C82.4973 92.3433 82.7369 91.791 83.111 91.6615C86.5648 90.4965 92.3445 90.9711 95.997 92.7144C96.3652 92.887 96.5697 93.4738 96.447 94.0175C96.3593 94.4577 96.0846 94.7338 95.7866 94.7338Z" fill="#475658"/>
<circle cx="177.5" cy="10.5" r="10" stroke="#E0E0E0"/>
<circle cx="166.5" cy="27.5" r="7" stroke="#E0E0E0"/>
<circle cx="157.5" cy="39.5" r="4" stroke="#E0E0E0"/>
</svg>
